<?xml version="1.0" encoding="UTF-8"?>
<!-- Created with Inkscape (http://www.inkscape.org/) -->
<svg width="100" height="26" version="1.1" viewBox="0 0 100 26" xmlns="http://www.w3.org/2000/svg" xmlns:cc="http://creativecommons.org/ns#" xmlns:dc="http://purl.org/dc/elements/1.1/" xmlns:rdf="http://www.w3.org/1999/02/22-rdf-syntax-ns#">
 <metadata>
  <rdf:RDF>
   <cc:Work rdf:about="">
    <dc:format>image/svg+xml</dc:format>
    <dc:type rdf:resource="http://purl.org/dc/dcmitype/StillImage"/>
    <dc:title/>
   </cc:Work>
  </rdf:RDF>
 </metadata>
 <g transform="matrix(.65333 0 0 .65333 -2.575 45.487)" stroke-width="1.5306">
  <g stroke-width="1.5306">
   <path d="m31.52-34.601c-2.5512-1.2031-4-3.2999-4-5.7889v-1.1303h4.7887c4.4985 0 4.81 0.03971 5.1395 0.65532 0.77312 1.4446 3.4767 1.4393 5.0322-0.0098 0.63322-0.58993 1.121-0.6455 5.6662-0.6455l4.9734-1.4e-5v7.36h-4.8c-4.6748 0-4.8-0.01766-4.8-0.67732 0-0.74358 0.08079-0.75288-2.88 0.33171-2.6255 0.96175-6.975 0.91636-9.12-0.09516zm43.52 0c-2.5512-1.2031-4-3.2999-4-5.7889v-1.1303h4.7887c4.4985 0 4.81 0.03971 5.1395 0.65532 0.77312 1.4446 3.4767 1.4393 5.0322-0.0098 0.63322-0.58993 1.121-0.6455 5.6662-0.6455l4.9734-1.4e-5v7.36h-4.8c-4.6748 0-4.8-0.01766-4.8-0.67732 0-0.74358 0.08079-0.75288-2.88 0.33171-2.6255 0.96175-6.975 0.91636-9.12-0.09516zm29.458 0.29983c-2.6294-0.97115-3.9932-2.7777-4.2697-5.6559l-0.1502-1.5631h14.801v3.3086c0 3.2918-4e-3 3.3108-0.88 3.7386-1.3151 0.64261-7.9042 0.76174-9.5015 0.17179zm-91.378-3.5391v-3.68h10.56v7.36h-10.56zm44.16 0v-3.68h10.88v7.36h-10.88zm59.52 0v-3.68h11.952l-0.69578 0.74062c-0.61012 0.64945-0.69578 1.1025-0.69578 3.68v2.9394h-10.56zm14.56 0.27208c-1.232-1.8681-2.288-3.5216-2.3467-3.6743-0.0587-0.15275 2.3173-0.27353 5.28-0.2684l5.3867 0.0093 1.44 1.9766c0.792 1.0871 1.9879 2.7389 2.6576 3.6707l1.2176 1.6941-11.395-0.0114-2.24-3.3966zm15.52-0.27208v-3.68h10.88v7.36h-10.88zm-133.76-12.96v-7.04h-8.32v-7.68h27.54l-0.09015 3.76-0.09016 3.76-8.48 0.17858v14.061h-10.56zm14.72 6.7041c0-0.69698 0.96768-2.1646 2.0591-3.1229 1.7213-1.5113 3.7893-1.9812 8.7189-1.9812 4.3058 0 4.9507-0.19562 3.5419-1.0743-1.4095-0.87914-5.1488-0.88887-10.4-0.02707l-1.36 0.2232v-2.8695c0-2.7393 0.0358-2.8858 0.78862-3.2289 3.356-1.5291 12.409-1.7745 15.877-0.4304 2.3038 0.89306 4.2109 2.5416 5.1251 4.43 0.57599 1.1898 0.75633 2.2187 0.86924 4.9591l0.14247 3.4578h-12.681c-8.6407 0-12.681-0.10702-12.681-0.33589zm29.44-2.5441v-2.88h-2.56v-7.68h2.4863l0.21453-1.84c0.54382-4.6644 2.6111-7.5597 6.1275-8.582 2.158-0.62733 6.5027-0.49373 8.6117 0.26482l1.28 0.46037 0.09071 3.5934c0.08377 3.3182 0.04702 3.581-0.48 3.4323-1.6412-0.46319-2.6302-0.5208-3.4686-0.20205-1.1204 0.42596-1.4108 0.83436-1.4172 1.9932l-0.004895 0.88h5.12v1.3917c0 0.76545-0.09313 2.4934-0.20696 3.84l-0.20695 2.4483h-4.7061v5.76h-10.88zm14.08 2.5441c0-0.69698 0.96768-2.1646 2.0591-3.1229 1.7213-1.5113 3.7893-1.9812 8.7189-1.9812 4.3058 0 4.9507-0.19562 3.5419-1.0743-1.4095-0.87914-5.1488-0.88887-10.4-0.02707l-1.36 0.2232v-2.8695c0-2.7393 0.0358-2.8858 0.78862-3.2289 3.356-1.5291 12.409-1.7745 15.877-0.4304 2.3038 0.89306 4.2109 2.5416 5.1251 4.43 0.57599 1.1898 0.75633 2.2187 0.86924 4.9591l0.14247 3.4578h-12.681c-8.6407 0-12.681-0.10702-12.681-0.33589zm28.8-11.504v-11.84h10.56v23.68h-10.56zm16.64 0.16v-11.68h10.56l0.0252 15.2 5.0722-5.2942 11.995 0.1742-9.0567 9.8732 1.0014 1.3034c0.55075 0.71686 1.1363 1.4834 1.3012 1.7034 0.23838 0.31798-1.8734 0.4-10.299 0.4h-10.599zm30.292 4.72c-0.11559-3.828-0.21052-8.724-0.21096-10.88l-7.8e-4 -3.92h10.88v3.1482c0 1.7315-0.095 6.6275-0.21118 10.88l-0.21118 7.7318h-10.036z" fill="#fee9e9"/>
   <path d="m32.04-34.365c-2.5883-0.95191-4.52-3.6495-4.52-6.312v-0.84287h4.7784c4.5417 0 4.7888 0.03261 4.9874 0.65833 0.46927 1.4785 3.565 1.5494 5.1106 0.11693 0.81012-0.75079 0.99255-0.77526 5.78-0.77526h4.9435v7.36h-4.8c-4.4412 0-4.8-0.04385-4.8-0.58667 0-0.94404-0.23557-0.95725-1.949-0.10927-2.1078 1.0431-7.302 1.3106-9.531 0.49084zm43.52 0c-2.5883-0.95191-4.52-3.6495-4.52-6.312v-0.84287h4.7784c4.5417 0 4.7888 0.03261 4.9874 0.65833 0.46927 1.4785 3.565 1.5494 5.1106 0.11693 0.81012-0.75079 0.99255-0.77526 5.78-0.77526h4.9435v7.36h-4.8c-4.4412 0-4.8-0.04385-4.8-0.58667 0-0.94404-0.23557-0.95725-1.949-0.10927-2.1078 1.0431-7.302 1.3106-9.531 0.49084zm29.233 0.0791c-2.7298-0.85539-4.1801-2.6546-4.5315-5.6218l-0.19094-1.6122h14.809v6.6952l-1.6581 0.4924c-1.9918 0.59151-6.6079 0.61692-8.4286 0.04639zm-91.673-3.554v-3.68h10.56v7.36h-10.56zm44.48 0v-3.68h10.56v7.36h-10.56zm59.2 0v-3.68h5.8096c5.608 0 5.7912 0.02032 5.28 0.5852-0.41595 0.45962-0.5296 1.2493-0.5296 3.68v3.0948h-10.56zm14.562 0.08-2.406-3.6 5.029-0.08847c2.766-0.04866 5.1932-0.02547 5.3939 0.05153s1.5378 1.7368 2.9715 3.6885l2.6067 3.5485h-11.189zm15.518-0.08v-3.68h10.88v7.36h-10.88zm-133.76-12.96v-7.04h-8.32v-7.68h27.2v7.68h-8.32v14.08h-10.56zm14.896 6.32c0.43429-1.4297 1.8578-2.8876 3.6302-3.7177 1.6341-0.76535 2.2155-0.8502 6.5142-0.95069 3.7348-0.08731 4.72-0.20206 4.72-0.54973 0-1.5025-5.5335-1.7712-11.579-0.5622l-0.90146 0.18029v-5.8152l1.68-0.50045c4.3292-1.2896 11.194-1.4494 14.487-0.33716 2.5207 0.85144 4.4354 2.4246 5.4332 4.4641 0.72037 1.4724 0.89751 2.3481 1.0401 5.1417l0.17185 3.367h-25.415zm29.584-2.16v-2.88h-2.88v-7.68h2.7958l0.15026-2.3415c0.36449-5.6796 4.3835-8.9132 10.481-8.433 1.327 0.10451 3.0968 0.42506 3.9328 0.71233l1.52 0.52231v6.9283l-1.1812-0.32615c-1.3131-0.36255-3.1158-0.17247-3.8074 0.40143-0.24829 0.20607-0.45145 0.86104-0.45145 1.4555v1.0808h5.2149l-0.20551 2.64c-0.11303 1.452-0.20637 3.18-0.20743 3.84l-0.0019 1.2h-4.8v5.76h-10.56zm13.936 2.16c0.43429-1.4297 1.8578-2.8876 3.6302-3.7177 1.6341-0.76535 2.2155-0.8502 6.5142-0.95069 3.7348-0.08731 4.72-0.20206 4.72-0.54973 0-1.5025-5.5335-1.7712-11.579-0.5622l-0.90146 0.18029v-5.8152l1.68-0.50045c4.3292-1.2896 11.194-1.4494 14.487-0.33716 2.5207 0.85144 4.4354 2.4246 5.4332 4.4641 0.72037 1.4724 0.89751 2.3481 1.0401 5.1417l0.17185 3.367h-25.415zm28.624-11.12v-11.84h10.56v23.68h-10.56zm16.64 0.16v-11.68h10.56v15.439l5.28-5.5545 11.671 0.1955-4.4834 4.9175c-2.896 3.1764-4.3883 5.0459-4.2147 5.28 0.1478 0.19937 0.73952 0.97448 1.3149 1.7225l1.0462 1.36h-21.174zm30.399 8.24c-3.2e-4 -1.892-0.0954-6.788-0.21111-10.88l-0.21037-7.44h11.084l-0.21018 6.96c-0.11559 3.828-0.21052 8.724-0.21096 10.88l-7.8e-4 3.92h-10.24l-6.4e-4 -3.44z" fill="#fecfcf"/>
   <path d="m32.602-34.282c-2.9929-1.0695-4.5755-2.9061-4.9673-5.7644l-0.202-1.4738h4.7921c4.7868 0 4.7925 9.6e-4 5.1526 0.79117 0.6659 1.4615 3.6058 1.4543 5.0725-0.01238 0.75562-0.75562 0.92118-0.77879 5.5642-0.77879h4.7855v7.3776l-4.56-0.08878c-4.4545-0.08673-4.5624-0.10545-4.6623-0.80879-0.12017-0.8461-0.3191-0.88547-1.2345-0.24427-1.8328 1.2837-7.3616 1.8527-9.7409 1.0025zm43.52 0c-2.9929-1.0695-4.5755-2.9061-4.9673-5.7644l-0.202-1.4738h4.7921c4.7868 0 4.7925 9.6e-4 5.1526 0.79117 0.6659 1.4615 3.6058 1.4543 5.0725-0.01238 0.75562-0.75562 0.92118-0.77879 5.5642-0.77879h4.7855v7.3776l-4.56-0.08878c-4.4545-0.08673-4.5624-0.10545-4.6623-0.80879-0.12017-0.8461-0.3191-0.88547-1.2345-0.24427-1.8328 1.2837-7.3616 1.8527-9.7409 1.0025zm28.739 0.0026c-2.6748-0.74969-4.7014-3.5585-4.7014-6.5163v-0.75932l14.72 0.14402v6.3234l-1.2 0.51984c-1.6007 0.69342-6.7696 0.86232-8.8186 0.28815zm-91.741-3.5608v-3.68h10.56v7.36h-10.56zm44.48 0v-3.68h10.56v7.36h-10.56zm59.2 0v-3.68h5.8096c5.608 0 5.7912 0.02032 5.28 0.5852-0.41595 0.45962-0.5296 1.2493-0.5296 3.68v3.0948h-10.56zm16.386 2.8c-0.33944-0.484-1.426-2.14-2.4146-3.68l-1.7974-2.8h10.493l2.5865 3.5035c1.4226 1.9269 2.5865 3.5829 2.5865 3.68 0 0.0971-2.4382 0.17654-5.4182 0.17654h-5.4182zm13.694-2.8v-3.68h10.88v7.36h-10.88zm-133.76-12.96v-7.04h-8.32v-7.68h27.2v7.68h-8.32v14.08h-10.56zm14.72 6.7826c0-0.14154 0.41766-0.91594 0.92814-1.7209 0.69148-1.0904 1.3992-1.694 2.7757-2.3675 1.7198-0.84142 2.1768-0.9133 6.6076-1.0392 4.1776-0.11868 4.7478-0.19885 4.6604-0.65518-0.27834-1.4523-6.7246-1.718-11.656-0.48036-0.75257 0.18889-0.75616 0.17625-0.75616-2.6665v-2.8563l1.7074-0.5382c4.1081-1.295 10.674-1.4863 14.147-0.41213 2.3688 0.73263 4.5087 2.2809 5.5124 3.9881 0.79144 1.3463 0.8838 1.8372 0.98687 5.2453l0.1137 3.76h-12.514c-6.8825 0-12.514-0.11581-12.514-0.25735zm29.76-2.6226v-2.88h-2.88v-7.68h2.88v-1.5419c0-3.7103 1.7857-6.8356 4.7281-8.2752 1.5862-0.77604 2.1808-0.88671 4.7038-0.87549 1.7635 0.0078 3.6046 0.22654 4.7281 0.56167l1.84 0.54882v6.6923l-1.9084-0.19947c-2.4781-0.25902-3.5316 0.33061-3.5316 1.9767v1.1126h5.1402l-0.19634 3.44c-0.10798 1.892-0.25201 3.62-0.32005 3.84-0.08362 0.27035-0.85304 0.4-2.3738 0.4h-2.25v5.76h-10.56zm13.76 2.6226c0-0.14154 0.41766-0.91594 0.92814-1.7209 0.69148-1.0904 1.3992-1.694 2.7757-2.3675 1.7198-0.84142 2.1768-0.9133 6.6076-1.0392 4.1776-0.11868 4.7478-0.19885 4.6604-0.65518-0.27834-1.4523-6.7246-1.718-11.656-0.48036-0.75257 0.18889-0.75616 0.17625-0.75616-2.6665v-2.8563l1.7074-0.5382c4.1081-1.295 10.674-1.4863 14.147-0.41213 2.3688 0.73263 4.5087 2.2809 5.5124 3.9881 0.79144 1.3463 0.8838 1.8372 0.98687 5.2453l0.1137 3.76h-12.514c-6.8825 0-12.514-0.11581-12.514-0.25735zm28.8-11.583v-11.84h10.56v23.68h-10.56zm16.64 0.16v-11.68h10.56l0.012 15.52 5.2689-5.635 11.642 0.19498-8.9905 9.7872 0.88734 1.2804c0.48804 0.70424 1.0074 1.3546 1.1541 1.4453 1.0319 0.63833-0.66906 0.7671-10.134 0.7671h-10.4zm30.4 0.8v-10.88h10.24l-3e-3 9.2c-2e-3 5.06-0.0936 9.956-0.20457 10.88l-0.20179 1.68h-9.8309v-10.88z" fill="#feb1b1"/>
   <path d="m32.378-34.449c-2.2292-0.76991-3.7889-2.306-4.3872-4.3208-0.86445-2.9109-1.1167-2.7506 4.3288-2.7506 3.9695 0 4.8 0.07991 4.8 0.46186 0 0.71485 1.3018 1.4583 2.5512 1.4569 1.1623-0.0012 3.2088-1.0179 3.2088-1.5941 0-0.20564 1.8188-0.3247 4.96-0.3247h4.96v7.36h-8.9478l-0.20079-0.8c-0.24053-0.95835-0.17994-0.9515-1.6743-0.18913-2.613 1.3331-6.8681 1.6436-9.5987 0.70056zm43.52 0c-2.2292-0.76991-3.7889-2.306-4.3872-4.3208-0.86445-2.9109-1.1167-2.7506 4.3288-2.7506 3.9695 0 4.8 0.07991 4.8 0.46186 0 0.71485 1.3018 1.4583 2.5512 1.4569 1.1623-0.0012 3.2088-1.0179 3.2088-1.5941 0-0.20564 1.8188-0.3247 4.96-0.3247h4.96v7.36h-8.9478l-0.20079-0.8c-0.24053-0.95835-0.17994-0.9515-1.6743-0.18913-2.613 1.3331-6.8681 1.6436-9.5987 0.70056zm29.275 0.17144c-0.85052-0.24054-1.9305-0.72134-2.4-1.0685-1.1554-0.85426-2.1755-2.8088-2.4405-4.6762l-0.21883-1.5418 14.766 0.17332v6.303l-1.1796 0.49288c-1.6364 0.68374-6.5806 0.86774-8.5268 0.31733zm-92.054-3.5629v-3.68h10.56v7.36h-10.56zm44.48 0v-3.68h10.24v7.36h-10.24zm59.2 0v-3.68h5.8096c5.608 0 5.7912 0.02032 5.28 0.5852-0.41595 0.45962-0.5296 1.2493-0.5296 3.68v3.0948h-10.56zm14.608 0-2.4509-3.68h10.461l2.6111 3.5281c1.4361 1.9405 2.6111 3.5965 2.6111 3.68 0 0.08355-2.4258 0.1519-5.3906 0.1519h-5.3906zm15.472 0v-3.68h10.88v7.36h-10.88zm-133.76-12.96v-7.04h-8.32v-7.68h27.2v7.68h-8.32v14.08h-10.56zm15.076 6.1138c0.4787-1.3732 2.3933-3.1252 4.0791-3.7327 1.0076-0.36311 2.9501-0.58753 6.0447-0.69836 4.6517-0.16661 5.269-0.37594 4.0622-1.3775-0.98454-0.81709-9.2156-0.65839-11.51 0.22192-0.39427 0.1513-0.47252-0.27748-0.47252-2.5892v-2.7706l1.04-0.42916c2.0763-0.8568 4.9616-1.2726 8.88-1.2796 5.285-0.0095 7.686 0.74092 10.081 3.151 1.9878 2.0001 2.3988 3.2589 2.3988 7.3476v3.0829h-24.927zm29.404-1.9538v-2.88h-2.88v-7.68h2.88v-1.5419c0-0.84805 0.2279-2.3093 0.50645-3.2473 0.6872-2.314 3.1666-4.8258 5.3703-5.4404 2.117-0.5904 5.7188-0.52189 8.1299 0.15464l1.9933 0.5593v6.6116l-2-0.18573c-2.3442-0.21769-3.3055 0.32381-3.639 2.0498l-0.20096 1.04h5.4687l-0.1539 3.12c-0.24043 4.8743-0.04461 4.56-2.8409 4.56h-2.3939v5.76h-10.24zm14.116 1.9538c0.4787-1.3732 2.3933-3.1252 4.0791-3.7327 1.0076-0.36311 2.9501-0.58753 6.0447-0.69836 4.6517-0.16661 5.269-0.37594 4.0622-1.3775-0.98454-0.81709-9.2156-0.65839-11.51 0.22192-0.39427 0.1513-0.47252-0.27748-0.47252-2.5892v-2.7706l1.04-0.42916c2.0763-0.8568 4.9616-1.2726 8.88-1.2796 5.285-0.0095 7.686 0.74092 10.081 3.151 1.9878 2.0001 2.3988 3.2589 2.3988 7.3476v3.0829h-24.927zm28.444-10.914v-11.84h10.56v23.68h-10.56zm16.64 0.16v-11.68h10.56l0.0256 15.52 5.2545-5.6146 11.749 0.0146-1.7145 1.8593c-0.94296 1.0226-2.993 3.2555-4.5557 4.962l-2.8412 3.1027 0.92122 1.352c0.50667 0.74358 1.0364 1.5347 1.1771 1.758 0.20482 0.32502-1.8232 0.40607-10.16 0.40607l-10.416 2e-6zm30.607 10c-0.11098-0.924-0.20304-5.82-0.20457-10.88l-3e-3 -9.2h10.24l-2e-3 7.76c-9.6e-4 4.268-0.0946 9.164-0.20827 10.88l-0.2066 3.12h-9.4143l-0.20179-1.68z" fill="#fe9696"/>
   <path d="m33.19-34.169c-2.9045-0.73168-4.7629-2.5145-5.3177-5.1011-0.19356-0.90254-0.35193-1.7779-0.35193-1.9452 0-0.17881 1.979-0.30425 4.8-0.30425 3.8075 0 4.8 0.089 4.8 0.4304 0 1.7152 3.7353 2.0028 5.3925 0.41513 0.87223-0.83565 0.93752-0.84554 5.585-0.84554h4.7025v7.36h-8.9478l-0.20558-0.81908c-0.15086-0.60109-0.34411-0.76053-0.7261-0.59908-3.5172 1.4866-7.2669 2.0295-9.7309 1.4088zm43.52 0c-2.9045-0.73168-4.7629-2.5145-5.3177-5.1011-0.19356-0.90254-0.35193-1.7779-0.35193-1.9452 0-0.17881 1.979-0.30425 4.8-0.30425 3.8075 0 4.8 0.089 4.8 0.4304 0 1.7152 3.7353 2.0028 5.3925 0.41513 0.87223-0.83565 0.93752-0.84554 5.585-0.84554h4.7025v7.36h-8.9478l-0.20558-0.81908c-0.15086-0.60109-0.34411-0.76053-0.7261-0.59908-3.5172 1.4866-7.2669 2.0295-9.7309 1.4088zm28.995 0.01632c-3.3238-0.70972-4.7945-2.3693-5.351-6.038l-0.211-1.3911 14.417 0.22228 1.2e-4 3.265 1.2e-4 3.265-1.2 0.34423c-1.6825 0.48264-6.0621 0.67301-7.6556 0.33276zm-92.584-3.6869v-3.68h10.56v7.36h-10.56zm44.48 0v-3.68h10.24v7.36h-10.24zm59.2 0v-3.68h5.8096c5.608 0 5.7912 0.02032 5.28 0.5852-0.41595 0.45962-0.5296 1.2493-0.5296 3.68v3.0948h-10.56zm14.608 0-2.4509-3.68h10.44l2.4017 3.28c1.3209 1.804 2.509 3.46 2.6402 3.68 0.18704 0.31363-0.92947 0.4-5.171 0.4h-5.4095zm15.472 0v-3.68h10.88v7.36h-10.88zm-133.76-13.12v-7.2h-8.32v-7.36h27.2v7.36h-8.32v14.4h-10.56zm15.068 6.32c0.66506-1.7605 2.8281-3.4422 5.2517-4.083 0.528-0.13961 2.9569-0.34004 5.3976-0.44541l4.4376-0.19157-0.64927-0.79997c-0.5855-0.72139-0.92132-0.81114-3.4188-0.91371-2.4748-0.10164-7.168 0.35318-8.3585 0.81002-0.36347 0.13948-0.44857-0.35346-0.44857-2.5984v-2.7706l1.0423-0.4355c3.3875-1.4154 11.153-1.7191 14.805-0.57901 2.5997 0.81146 4.6258 2.3702 5.6693 4.3615 0.56052 1.0697 0.71952 2.0207 0.8235 4.9256l0.12886 3.6h-25.013zm29.344-2.08-0.09201-2.96-2.72-0.1968v-7.3232h2.7924l0.16211-2.0196c0.29994-3.7366 1.9737-6.4012 4.8855-7.7778 1.3077-0.61823 2.1222-0.75697 4.459-0.75953 1.6799-0.0019 3.6265 0.21223 4.72 0.51904l1.861 0.52217v6.5502l-2.186-0.15641c-2.0892-0.14948-2.2167-0.11735-2.88 0.72588-0.3817 0.48526-0.69401 1.2229-0.69401 1.6391 0 0.73506 0.07652 0.75684 2.6586 0.75684h2.6586l-0.11357 2.96c-0.17673 4.6058-0.02458 4.3565-2.7261 4.466l-2.3174 0.093968-0.18402 5.92h-10.192zm14.176 2.08c0.66506-1.7605 2.8281-3.4422 5.2517-4.083 0.528-0.13961 2.9569-0.34004 5.3976-0.44541l4.4376-0.19157-0.64927-0.79997c-0.5855-0.72139-0.92132-0.81114-3.4188-0.91371-2.4748-0.10164-7.168 0.35318-8.3585 0.81002-0.36348 0.13948-0.44857-0.35346-0.44857-2.5984v-2.7706l1.0423-0.4355c3.3875-1.4154 11.153-1.7191 14.805-0.57901 2.5997 0.81146 4.6258 2.3702 5.6693 4.3615 0.56052 1.0697 0.71952 2.0207 0.8235 4.9256l0.12886 3.6h-25.013zm28.452-10.96v-11.84h10.56v23.68h-10.56zm16.64 0.16v-11.68h10.56l0.0157 7.76 0.0158 7.76 5.258-5.6h11.69l-4.4096 4.8157c-2.4253 2.6486-4.4577 4.9527-4.5164 5.1202s0.31313 0.84438 0.8263 1.5043c0.51317 0.65989 1.0377 1.3798 1.1656 1.5998 0.18407 0.31657-1.9405 0.4-10.186 0.4h-10.419zm30.608 8.7508c-0.11436-1.611-0.20792-6.507-0.20792-10.88v-7.9508h10.24l-1e-3 6.8c-6.4e-4 3.74-0.0949 8.636-0.20938 10.88l-0.20809 4.08h-9.4054l-0.20792-2.9292z" fill="#fe8484"/>
   <path d="m33.339-34.165c-2.7968-0.58438-4.8759-2.5298-5.473-5.1212-0.18168-0.78847-0.33384-1.6136-0.33814-1.8336-0.0059-0.30257 1.1613-0.4 4.7922-0.4 3.8075 0 4.8 0.089 4.8 0.4304 0 1.7152 3.7353 2.0028 5.3925 0.41513 0.87223-0.83565 0.93752-0.84554 5.585-0.84554h4.7025v7.36h-8.9478l-0.20558-0.81908c-0.15205-0.60584-0.34109-0.75969-0.7261-0.59092-3.0949 1.3566-7.0423 1.9353-9.5816 1.4048zm43.52 0c-2.7968-0.58438-4.8759-2.5298-5.473-5.1212-0.18168-0.78847-0.33384-1.6136-0.33814-1.8336-0.0059-0.30257 1.1613-0.4 4.7922-0.4 3.8075 0 4.8 0.089 4.8 0.4304 0 1.7152 3.7353 2.0028 5.3925 0.41513 0.87223-0.83565 0.93752-0.84554 5.585-0.84554h4.7025v7.36h-8.9478l-0.20558-0.81908c-0.15205-0.60584-0.34109-0.75969-0.7261-0.59092-3.0949 1.3566-7.0423 1.9353-9.5816 1.4048zm29.03 0.02125c-3.4324-0.62752-4.9679-2.3049-5.5355-6.0471l-0.211-1.3911 14.417 0.22228 2.4e-4 6.4587-1.3328 0.39932c-1.7276 0.51762-5.4672 0.70004-7.3382 0.35798zm-92.769-3.696v-3.68h10.56v7.36h-10.56zm44.48 0v-3.68h10.24v7.36h-10.24zm59.2 0v-3.68h11.632l-0.69578 0.74062c-0.61012 0.64945-0.69578 1.1025-0.69578 3.68v2.9394h-10.24zm14.835 0.25852c-1.2071-1.8818-2.2427-3.5378-2.3014-3.68-0.0587-0.14218 2.1803-0.25852 4.9754-0.25852h5.0821l2.3846 3.2604c1.3115 1.7932 2.4998 3.4492 2.6405 3.68 0.20717 0.33967-0.77658 0.41959-5.1653 0.41959h-5.4212zm15.245-0.25852v-3.68h10.88v7.36h-10.88zm-133.76-13.12v-7.2h-8.32v-7.36h27.2v7.36h-8.32v14.4h-10.56zm14.937 6.6005c0.26451-1.0115 2.0197-2.9056 3.2956-3.5565 1.6322-0.83266 4.6135-1.2786 8.5677-1.2815 1.804-0.0013 3.28-0.1241 3.28-0.27282 0-0.14872-0.30283-0.54472-0.67296-0.88-0.53683-0.48628-1.2746-0.6318-3.647-0.71936-2.7201-0.10039-6.689 0.29097-7.9818 0.78706-0.46538 0.17858-0.51382-0.11635-0.43124-2.6257l0.09303-2.8269 1.9132-0.58164c6.57-1.9974 14.65-1.1227 17.876 1.9351 1.7709 1.6786 2.25 3.0857 2.3909 7.0219l0.12886 3.6h-12.485c-12.046 0-12.479-0.02106-12.328-0.59953zm29.543-2.4405v-3.04h-2.88v-7.36h2.7875l0.19502-2.0884c0.33746-3.6138 1.8645-6.1785 4.5375-7.6209 1.1122-0.60014 1.7834-0.68942 5.12-0.68102 2.8766 0.0073 4.1411 0.14365 5.04 0.54367l1.2 0.53399v6.3864l-1.7315-0.17871c-2.2681-0.23409-3.196 0.0281-3.6536 1.0323-0.85369 1.8737-0.63524 2.0726 2.2756 2.0726h2.6505l-0.09892 2.32c-0.0544 1.276-0.17501 2.9258-0.26802 3.6663l-0.1691 1.3463-4.6049 0.18733-0.18402 5.92h-10.216zm13.977 2.4405c0.26451-1.0115 2.0197-2.9056 3.2956-3.5565 1.6322-0.83266 4.6135-1.2786 8.5677-1.2815 1.804-0.0013 3.28-0.1241 3.28-0.27282 0-0.14872-0.30283-0.54472-0.67296-0.88-0.53683-0.48628-1.2746-0.6318-3.647-0.71936-2.7201-0.10039-6.689 0.29097-7.9818 0.78706-0.46538 0.17858-0.51382-0.11635-0.43124-2.6257l0.09303-2.8269 1.9132-0.58164c6.57-1.9974 14.65-1.1227 17.876 1.9351 1.7709 1.6786 2.25 3.0857 2.3909 7.0219l0.12886 3.6h-12.485c-12.046 0-12.479-0.02106-12.328-0.59953zm28.583-11.24v-11.84h10.24v23.68h-10.24zm16.64 0.16v-11.68h10.24v7.68c0 4.3991 0.12437 7.68 0.29114 7.68 0.16012 0 1.4363-1.224 2.836-2.72l2.5448-2.72h5.644c3.1042 0 5.644 0.08028 5.644 0.17839 0 0.09811-1.8874 2.2221-4.1942 4.72-2.3068 2.4979-4.2608 4.7074-4.3421 4.9101-0.0814 0.20265 0.3795 1.1026 1.0242 2l1.1722 1.6315h-20.86zm30.609 7.7898c-0.11505-2.1396-0.20918-7.0356-0.20918-10.88v-6.9898h10.24v6.0291c0 3.316-0.0945 8.212-0.20996 10.88l-0.20996 4.8509h-9.4017z" fill="#fe6d6d"/>
   <path d="m34.24-34.051c-3.9447-0.71523-6.048-2.6967-6.485-6.1094l-0.17412-1.36h4.7696c3.9203 0 4.7695 0.0814 4.7695 0.45714 0 1.5121 3.057 1.999 5.0022 0.79676 0.59277-0.36636 1.0778-0.79836 1.0778-0.96 0-0.16547 2.0975-0.2939 4.8-0.2939h4.8v7.36h-8.9091l-0.21286-0.96914-0.21286-0.96915-1.0126 0.61987c-1.6971 1.0389-6.1181 1.8075-8.2126 1.4278zm43.52 0c-3.9447-0.71523-6.048-2.6967-6.485-6.1094l-0.17412-1.36h4.7696c3.9203 0 4.7695 0.0814 4.7695 0.45714 0 1.5121 3.057 1.999 5.0022 0.79676 0.59277-0.36636 1.0778-0.79836 1.0778-0.96 0-0.16547 2.0975-0.2939 4.8-0.2939h4.8v7.36h-8.9091l-0.21286-0.96914-0.21286-0.96915-1.0126 0.61987c-1.6971 1.0389-6.1181 1.8075-8.2126 1.4278zm28.163-0.1386c-3.3829-0.59241-5.42-2.8436-5.4359-6.0072l-7e-3 -1.3964 14.079 0.23278 6.4e-4 6.4587-1.2 0.35116c-1.8098 0.52959-5.4618 0.70683-7.437 0.36093zm-92.483-3.6508v-3.68h9.92v7.36h-9.92zm44.16 0v-3.68h10.24v7.36h-10.24zm59.2 0v-3.68h5.6c3.08 0 5.6 0.12637 5.6 0.28082 0 0.15445-0.216 0.46008-0.48 0.67918-0.36422 0.30228-0.48 1.1222-0.48 3.3992v3.0008h-10.24zm14.88 0.27208c-1.232-1.8681-2.288-3.5216-2.3467-3.6743-0.0587-0.15275 2.1733-0.27181 4.96-0.26458l5.0667 0.01315 1.4652 1.9869c0.80585 1.0928 2.0074 2.7429 2.67 3.6669l1.2048 1.68-10.78-0.0114-2.24-3.3966zm15.2-0.27208v-3.68h10.88v7.36h-10.88zm-133.51-13.04-0.086122-7.12-8.48-0.17858v-7.3414h27.2v7.3414l-8.48 0.17858-0.17224 14.24h-9.8955zm14.982 6.08c1.5724-3.1163 3.8447-4.0697 10.292-4.3182 2.508-0.09668 4.5578-0.26262 4.5551-0.36878-0.01194-0.46981-0.55617-0.97883-1.3824-1.293-1.2286-0.46712-6.6269-0.40664-9.2644 0.1038l-2.1718 0.4203 0.18352-5.4795 1.824-0.55449c4.9148-1.494 11.695-1.384 15.296 0.24821 3.7642 1.7064 4.8509 3.5724 5.056 8.6817l0.1445 3.6h-25.057zm29.252-2v-3.04h-2.88v-7.36h2.7875l0.19502-2.0884c0.33746-3.6138 1.8645-6.1785 4.5375-7.6209 1.1047-0.59608 1.7841-0.68901 4.96-0.67837 2.4058 0.0081 4.1232 0.1745 4.96 0.48072l1.28 0.4684 0.18086 6.4207-2.2163-0.12523c-1.9249-0.10876-2.3049-0.03659-2.8904 0.54895-0.38593 0.38594-0.67417 1.0846-0.67417 1.6342v0.96h5.12l-0.0035 2.48c-0.0019 1.364-0.09278 3.02-0.20187 3.68l-0.19834 1.2h-4.7163v6.08h-10.24v-3.04zm14.268 2c1.5724-3.1163 3.8447-4.0697 10.292-4.3182 2.508-0.09668 4.5578-0.26262 4.5551-0.36878-0.01194-0.46981-0.55617-0.97883-1.3824-1.293-1.2286-0.46712-6.6269-0.40664-9.2644 0.1038l-2.1718 0.4203 0.18352-5.4795 1.824-0.55449c4.9148-1.494 11.695-1.384 15.296 0.24821 3.7642 1.7064 4.8509 3.5724 5.056 8.6817l0.1445 3.6h-25.057zm28.292-10.8v-11.84h10.24v23.68h-10.24zm16.64 0.16v-11.68h10.24v7.84c0 4.312 0.108 7.8306 0.24 7.8191 0.132-0.01152 1.392-1.2981 2.8-2.8591l2.56-2.8381 5.68-0.02093c3.124-0.01152 5.68 0.03496 5.68 0.10327s-1.944 2.2577-4.32 4.8652c-2.376 2.6076-4.32 4.8724-4.32 5.0329s0.51627 0.99518 1.1472 1.8548l1.1473 1.5629h-20.855zm30.611 7.12c-0.11474-2.508-0.20914-7.404-0.20978-10.88l-1e-3 -6.32h10.24v5.0687c0 2.7878-0.0947 7.6838-0.2105 10.88l-0.21067 5.8113h-9.3994z" fill="#fe4c4c"/>
   <path d="m33.895-34.168c-1.6736-0.27757-3.7185-1.2404-4.5223-2.1294-0.8168-0.90323-1.5322-2.8139-1.5322-4.0921v-1.1303h4.64c4.399 0 4.64 0.03266 4.64 0.62874 0 0.83395 0.92893 1.2915 2.619 1.2901 1.3844-0.0012 3.461-0.95767 3.461-1.5941 0-0.20517 1.767-0.3247 4.8-0.3247h4.8v7.36h-8.9091l-0.41874-1.9065-1.5496 0.78525c-2.0749 1.0514-5.5196 1.529-8.028 1.113zm43.52 0c-1.6736-0.27757-3.7185-1.2404-4.5223-2.1294-0.8168-0.90323-1.5322-2.8139-1.5322-4.0921v-1.1303h4.64c4.399 0 4.64 0.03266 4.64 0.62874 0 0.83395 0.92893 1.2915 2.619 1.2901 1.3844-0.0012 3.461-0.95767 3.461-1.5941 0-0.20517 1.767-0.3247 4.8-0.3247h4.8v7.36h-8.9091l-0.41874-1.9065-1.5496 0.78525c-2.0749 1.0514-5.5196 1.529-8.028 1.113zm29.139 0.02541c-3.9658-0.53236-6.0738-2.7332-6.0738-6.3413v-1.1086l14.079 0.23278 6.4e-4 6.4962-1.52 0.33726c-2.3181 0.51435-4.5358 0.64554-6.4862 0.38371zm-93.114-3.6971v-3.68h9.92v7.36h-9.92zm44.16 0v-3.68h10.24v7.36h-10.24zm59.52 0v-3.68h5.4896c5.298 0 5.4711 0.02042 4.96 0.5852-0.41595 0.45962-0.5296 1.2493-0.5296 3.68v3.0948h-9.92zm14.56 0.27208c-1.232-1.8681-2.288-3.5216-2.3467-3.6743-0.0587-0.15275 2.1733-0.27428 4.96-0.27007l5.0667 0.0076 1.6536 2.3123c0.90946 1.2718 2.1099 2.9243 2.6677 3.6723l1.0141 1.36-10.775-0.0114-2.24-3.3966zm15.2-0.27208v-3.68h10.56v7.36h-10.56zm-133.51-13.04-0.086122-7.12-8.48-0.17858v-7.3414h27.2v7.36h-8.64v14.4h-9.9078zm14.794 6.7841c0-0.73874 1.0198-2.2371 2.0652-3.0345 1.6848-1.285 3.7536-1.7613 8.5748-1.9739 2.42-0.10672 4.4-0.30562 4.4-0.44201 0-0.45422-0.99437-1.2501-1.8211-1.4576-1.1125-0.27923-8.6502 0.08501-9.9389 0.48027l-1.04 0.31899v-2.7056c0-2.6515 0.01744-2.7122 0.87254-3.0373 2.0744-0.78869 5.6086-1.2949 9.0475-1.2959 6.0654-0.0019 9.7535 1.5993 11.5 4.9925 0.6912 1.3431 0.83256 2.1064 0.93287 5.037l0.11822 3.454h-12.355c-8.4133 0-12.355-0.10717-12.355-0.33589zm29.44-2.7041v-3.04h-2.88v-7.36h2.7916l0.21433-2.16c0.402-4.0514 2.4277-6.855 5.7504-7.9587 1.868-0.62044 6.6158-0.46775 8.6836 0.27927l1.28 0.46242 0.09043 3.1795 0.09043 3.1795-2.2163-0.12523c-1.9249-0.10876-2.3049-0.03659-2.8904 0.54895-0.38593 0.38594-0.67417 1.0846-0.67417 1.6342v0.96h5.12v2.1953c0 1.2074-0.09157 2.8634-0.20349 3.68l-0.2035 1.4847h-4.713v6.08h-10.24zm14.08 2.7041c0-0.73874 1.0198-2.2371 2.0652-3.0345 1.6848-1.285 3.7536-1.7613 8.5748-1.9739 2.42-0.10672 4.4-0.30562 4.4-0.44201 0-0.45422-0.99437-1.2501-1.8211-1.4576-1.1125-0.27923-8.6502 0.08501-9.9389 0.48027l-1.04 0.31899v-2.7056c0-2.6515 0.01744-2.7122 0.87254-3.0373 2.0744-0.78869 5.6086-1.2949 9.0475-1.2959 6.0654-0.0019 9.7535 1.5993 11.5 4.9925 0.6912 1.3431 0.83256 2.1064 0.93287 5.037l0.11822 3.454h-12.355c-8.4133 0-12.355-0.10717-12.355-0.33589zm28.8-11.504v-11.84h9.92v23.68h-9.92zm16.64 0.16v-11.68h9.92v7.84c0 4.312 0.0867 7.84 0.19259 7.84 0.10592 0 1.4379-1.304 2.96-2.8978l2.7674-2.8978 11.064 0.19568-8.9493 9.8341 1.2728 1.7229 1.2728 1.7229h-20.5zm30.29 6.3489c-0.11564-2.9321-0.21025-7.8281-0.21025-10.88v-5.5489h10.24v4.5885c0 2.5237-0.0948 7.4197-0.21071 10.88l-0.2107 6.2915h-9.3981z" fill="#fe3030"/>
   <path d="m34.01-34.199c-3.4017-0.42524-5.8068-2.6963-6.1013-5.7611l-0.1499-1.56h4.6807c4.294 0 4.6807 0.04759 4.6807 0.576 0 0.95797 0.68546 1.3441 2.384 1.3428 1.6132-0.0013 3.696-0.89953 3.696-1.5941 0-0.20517 1.767-0.3247 4.8-0.3247h4.8v7.36h-8.9091l-0.21457-0.97695c-0.11802-0.53732-0.30946-0.92597-0.42543-0.86367-2.9447 1.5821-6.0909 2.1955-9.2411 1.8017zm43.52 0c-3.4017-0.42524-5.8068-2.6963-6.1013-5.7611l-0.1499-1.56h4.6807c4.294 0 4.6807 0.04759 4.6807 0.576 0 0.95797 0.68546 1.3441 2.384 1.3428 1.6132-0.0013 3.696-0.89953 3.696-1.5941 0-0.20517 1.767-0.3247 4.8-0.3247h4.8v7.36h-8.9091l-0.21457-0.97695c-0.11802-0.53732-0.30946-0.92597-0.42543-0.86367-2.9447 1.5821-6.0909 2.1955-9.2411 1.8017zm29.17 0.01901c-2.7372-0.27047-4.4214-1.2965-5.421-3.3024-0.4436-0.8902-0.79897-2.1615-0.79897-2.8583v-1.255l14.099 0.23563-0.1794 6.3986-1.12 0.36008c-1.4995 0.48208-4.2096 0.65567-6.58 0.42145zm-93.26-3.6601v-3.68h9.92v7.36h-9.92zm44.16 0v-3.68h10.24v7.36h-10.24zm59.52 0v-3.68h5.4896c5.298 0 5.4711 0.02042 4.96 0.5852-0.41595 0.45962-0.5296 1.2493-0.5296 3.68v3.0948h-9.92zm14.492 0.06032-2.3082-3.5803 9.7365-0.18768 0.80214 0.94848c0.44118 0.52166 1.703 2.1839 2.804 3.6938l2.0019 2.7454-10.728-0.03936zm15.588-0.06032v-3.68h10.24v7.36h-10.24zm-133.76-13.12v-7.2h-8.64v-7.36h27.2v7.36h-8.64v14.4h-9.92zm14.72 6.768c0-0.92431 1.8911-3.0039 3.3591-3.694 1.6639-0.78214 5.3612-1.3079 9.2244-1.3116 2.1974-0.0022 2.4905-0.06991 2.3972-0.55439-0.22349-1.1605-1.4608-1.4092-6.1806-1.2422-2.464 0.08717-4.876 0.2553-5.36 0.37362l-0.88 0.21513v-2.586c0-2.1464 0.09628-2.6376 0.56634-2.8891 1.2759-0.68284 5.7852-1.344 9.1662-1.344 4.2534 0 7.0107 0.72068 9.2244 2.411 2.2007 1.6804 2.8894 3.3883 3.0628 7.5958l0.14247 3.4578h-12.361c-10.164 0-12.361-0.076794-12.361-0.43199zm29.44-2.608v-3.04h-2.88v-7.36h2.7919l0.21084-1.84c0.5185-4.5249 2.4664-7.2854 5.8309-8.2635 2.0671-0.60091 6.3723-0.49161 8.5264 0.21647l1.2 0.39444 6.4e-4 3.2263 6.4e-4 3.2263-2.2052-0.10486c-2-0.09511-2.2531-0.0364-2.7207 0.6312-0.2834 0.40484-0.5154 1.136-0.5154 1.6249v0.8888h5.12l-0.0029 2c-0.0016 1.1-0.09359 2.756-0.20457 3.68l-0.20179 1.68h-4.7109v6.08h-10.24v-3.04zm14.08 2.608c0-0.92431 1.8911-3.0039 3.3591-3.694 1.6639-0.78214 5.3612-1.3079 9.2244-1.3116 2.1974-0.0022 2.4905-0.06991 2.3972-0.55439-0.22349-1.1605-1.4608-1.4092-6.1806-1.2422-2.464 0.08717-4.876 0.2553-5.36 0.37362l-0.88 0.21513v-2.586c0-2.1464 0.09628-2.6376 0.56634-2.8891 1.2759-0.68284 5.7852-1.344 9.1662-1.344 4.2534 0 7.0107 0.72068 9.2244 2.411 2.2007 1.6804 2.8894 3.3883 3.0628 7.5958l0.14247 3.4578h-12.361c-10.164 0-12.361-0.076794-12.361-0.43199zm28.8-11.408v-11.84h9.92v23.68h-9.92zm16.64 0.16v-11.68h9.92v7.84c0 4.312 0.10361 7.84 0.23025 7.84s1.4586-1.3046 2.96-2.8991l2.7298-2.8991 11.048 0.1983-4.501 4.9067c-3.0023 3.2729-4.4085 5.031-4.2233 5.28 0.15273 0.2053 0.74848 0.98528 1.3239 1.7333l1.0462 1.36h-20.534zm30.29 5.8687c-0.11578-3.1962-0.2105-8.0922-0.2105-10.88v-5.0687h10.24v4.1084c0 2.2596-0.0949 7.1556-0.21089 10.88l-0.21089 6.7716h-9.3972z" fill="#fe0000"/>
  </g>
 </g>
</svg>
