<?xml version="1.0" encoding="UTF-8"?>
<!-- Created with Inkscape (http://www.inkscape.org/) -->
<svg width="35" height="35" version="1.1" viewBox="0 0 35 35" xmlns="http://www.w3.org/2000/svg" xmlns:cc="http://creativecommons.org/ns#" xmlns:dc="http://purl.org/dc/elements/1.1/" xmlns:rdf="http://www.w3.org/1999/02/22-rdf-syntax-ns#">
 <metadata>
  <rdf:RDF>
   <cc:Work rdf:about="">
    <dc:format>image/svg+xml</dc:format>
    <dc:type rdf:resource="http://purl.org/dc/dcmitype/StillImage"/>
    <dc:title/>
   </cc:Work>
  </rdf:RDF>
 </metadata>
 <g transform="matrix(.052 0 0 .052 4.3145 4.188)" stroke-width="19.231">
  <path d="m170.25 505.34c-0.97977-0.39535-1.25-13.002-1.25-58.314 0-51.792 0.16465-57.873 1.5818-58.417 0.86998-0.33385 38.67-0.60699 84-0.60699h82.418v118l-82.75-0.079c-45.512-0.0434-83.312-0.30592-84-0.58333zm0-148c-0.98969-0.39935-1.25-24.123-1.25-113.92v-113.42h-131.73l-0.63592-4.6396c-0.83478-6.0904-0.81924-77.979 0.02188-101.2l0.65781-18.16h210.7c115.88 0 213.46 0.28946 216.85 0.64325l6.1543 0.64325-0.51526 122.21-132.18 0.51417-0.66236 39.157c-0.3643 21.536-0.66236 72.833-0.66236 113.99v74.836l-82.75-0.079c-45.512-0.0434-83.312-0.30592-84-0.58333z" fill="#fde8e8"/>
  <path d="m172.4 505.32c-1.975-0.39162-2.1452-1.2594-2.7857-14.198-0.65473-13.228-0.5548-67.405 0.1676-90.868l0.34638-11.25h166.89l-0.51612 116.5-81 0.11676c-44.55 0.0642-81.947-0.0709-83.104-0.30036zm0.51028-148.01-2.5933-0.40442-0.65674-19.61c-0.36121-10.785-0.65674-61.803-0.65674-113.37v-93.763l-65.417-0.32599c-35.98-0.1793-65.645-0.55401-65.923-0.83271-0.63835-0.63915-1.1288-53.113-0.86207-92.243l0.20275-29.75h434.11l-0.30693 60.417c-0.1688 33.23-0.68169 60.792-1.1397 61.25-0.45805 0.45791-30.496 0.98374-66.75 1.1685l-65.917 0.33592-0.0741 109.16c-0.0408 60.04-0.37827 111.19-0.75 113.66l-0.67588 4.5-80 0.10313c-44 0.0567-81.167-0.0789-82.593-0.3013z" fill="#fdcfcf"/>
  <path d="m178.75 505.31-8.75-0.38498v-115.92h165.79l0.75188 16.75c0.78642 17.52-0.13279 98.177-1.1302 99.175-0.64113 0.64128-142.88 0.98846-156.66 0.38238zm1-147.99-9.75-0.38643-0.0153-112.21c-9e-3 -65.791-0.39238-112.81-0.92676-113.65-0.77394-1.2232-10.615-1.4968-65.235-1.8138-35.378-0.20533-64.886-0.55548-65.573-0.77812-0.98158-0.31786-1.25-13.263-1.25-60.284v-59.879l10.656-0.65197c5.8606-0.35858 103.29-0.65197 216.51-0.65197h205.85l-0.25774 60.75-0.25775 60.75-132.19 0.51418-0.55686 113.56c-0.30627 62.459-0.84957 113.85-1.2073 114.21-0.69923 0.69923-139.59 1.1675-155.79 0.52529z" fill="#fcb5b5"/>
  <path d="m170.24 447.25 0.25812-57.75h165l0.25812 57.75 0.25813 57.75h-166.03zm-0.24188-204.25v-114l-38.75-2e-3c-21.312-1e-3 -51.238-0.29843-66.5-0.66081l-27.75-0.65882v-40.178c0-22.098 0.29631-49.026 0.65846-59.839l0.65846-19.661h431.7l-0.51574 119.5-65.43 0.71208c-35.986 0.39164-66.024 0.94002-66.75 1.2186-1.0826 0.41545-1.32 20.924-1.32 114.04v113.53h-166z" fill="#fc9191"/>
  <path d="m171 447.5v-57.5h165v115h-165zm-0.33639-143.16c-0.36498-28.969-0.66361-80.496-0.66361-114.51v-61.835h-132v-120h431.02l-0.51574 119.5-132 1-1 228-164.17 0.51155z" fill="#fc7272"/>
  <path d="m172.75 504.31c-1.6408-0.42879-1.75-4.009-1.75-57.384v-56.927h164v115l-80.25-0.116c-44.138-0.0638-81.038-0.3218-82-0.57333zm0-148c-1.6532-0.43203-1.7506-6.55-1.761-110.63-6e-3 -60.597-0.28993-111.86-0.63084-113.93l-0.61983-3.75h-64.287c-35.358 0-64.999-0.27314-65.869-0.60699-1.4176-0.54399-1.5818-6.7198-1.5818-59.5v-58.893h431v117.68l-31.663 0.6615c-17.415 0.36383-47.34 0.66151-66.5 0.66151h-34.837l-0.14806 43.75c-0.0814 24.062-0.23981 44.425-0.35194 45.25s-0.27051 32.662-0.35194 70.75l-0.14806 69.25-80.25-0.116c-44.138-0.0638-81.038-0.3218-82-0.57333z" fill="#fc5454"/>
  <path d="m172 447v-57h163v114h-163zm-3e-3 -175.25c-3e-3 -80.084-0.75082-142.66-1.7178-143.75-0.24439-0.275-29.995-0.725-66.112-1l-65.667-0.5v-117l429.5-0.50458v117.96l-65.417 0.2711c-35.979 0.14911-65.792 0.64599-66.25 1.1042s-0.95655 51.871-1.1076 114.25l-0.27472 113.42h-162.95z" fill="#fd2e2e"/>
  <path d="m172 447.5v-56.5h163v113h-163zm-0.23338-205.42c-0.14664-62.654-0.64131-114.29-1.0993-114.75s-30.27-0.97484-66.25-1.148l-65.417-0.3149v-115.87h429v115.84l-65.537 0.3313c-56.923 0.28774-65.661 0.52845-66.485 1.8313-0.58244 0.92177-0.95372 45.157-0.96313 114.75l-0.01531 113.25h-162.97z" fill="#fc1818"/>
  <path d="m173 447.5v-56.5h161v113h-161zm-0.18175-205.08c-0.31126-111.09-0.36088-113.61-2.2594-115-1.629-1.1909-12.363-1.4191-66.75-1.4191h-64.809v-116h428v116h-64.309c-53.142 0-64.637 0.23995-66.199 1.3819-1.8295 1.3378-1.9036 5.0089-2.3185 115l-0.42865 113.62h-160.61z" fill="#fd0000"/>
 </g>
</svg>
